<svg width="16" height="26" viewBox="0 0 16 26" fill="none" xmlns="http://www.w3.org/2000/svg">
<path fill-rule="evenodd" clip-rule="evenodd" d="M15.4795 0.47615C15.8128 0.781121 16 1.19469 16 1.62592C16 2.05715 15.8128 2.47073 15.4795 2.7757L4.29138 13.0098L15.4795 23.2439C15.8033 23.5507 15.9825 23.9615 15.9785 24.3879C15.9744 24.8143 15.7874 25.2222 15.4578 25.5237C15.1282 25.8252 14.6823 25.9962 14.2161 25.9999C13.75 26.0036 13.3009 25.8397 12.9656 25.5435L0.520534 14.1596C0.187237 13.8546 0 13.441 0 13.0098C0 12.5786 0.187237 12.165 0.520534 11.86L12.9656 0.47615C13.299 0.171272 13.7511 0 14.2225 0C14.6939 0 15.1461 0.171272 15.4795 0.47615Z" fill="#868686"/>
</svg>
