<svg width="16" height="11" viewBox="0 0 16 11" fill="none" xmlns="http://www.w3.org/2000/svg">
<path d="M3.15039 0C1.52319 0 0.249605 0.349802 0.0248047 1.68029C-0.0471953 2.10632 0.111195 2.52555 0.475195 2.82839C0.655995 2.9788 0.8472 3.15778 1.1 3.33881C1.7344 3.7941 2.5432 4.30588 3.3 4.76389C5.3824 6.02292 7.0264 6.80556 8 6.80556C8.9736 6.80556 10.6176 6.02292 12.7 4.76389C13.4576 4.30588 14.2664 3.79342 14.9 3.33881C15.1528 3.15778 15.344 2.97948 15.5248 2.82839C15.8888 2.52555 16.0472 2.10632 15.9752 1.68029C15.7504 0.349802 14.4768 0 12.8496 0H3.15039ZM0 4.1895V8.16667C0 9.67001 1.4328 10.8889 3.2 10.8889H12.8C14.5672 10.8889 16 9.67001 16 8.16667V4.1895C15.344 4.71966 14.6112 5.26682 13.5752 5.89089C11.3064 7.25745 9.2688 8.16667 8 8.16667C6.7312 8.16667 4.6936 7.25745 2.4248 5.89089C1.388 5.26682 0.656 4.71966 0 4.1895Z" fill="#404040"/>
</svg>
