<svg width="17" height="14" viewBox="0 0 17 14" fill="none" xmlns="http://www.w3.org/2000/svg">
<path d="M7.88086 4.37517L10.172 6.66628L10.1829 6.54627C10.1829 5.34251 9.20462 4.36426 8.00087 4.36426L7.88086 4.37517Z" fill="#868686"/>
<path d="M7.99995 2.90915C10.0074 2.90915 11.6366 4.53839 11.6366 6.54584C11.6366 7.01497 11.5421 7.46228 11.3785 7.87322L13.5059 10.0007C14.6042 9.08423 15.4697 7.89869 16.0043 6.54584C14.7424 3.35285 11.6403 1.09082 7.99999 1.09082C6.9817 1.09082 6.0071 1.27264 5.10156 1.59994L6.67261 3.16734C7.08351 3.00734 7.53082 2.90915 7.99995 2.90915Z" fill="#868686"/>
<path d="M0.727325 0.927354L2.38565 2.58568L2.7166 2.91663C1.5165 3.85489 0.567322 5.10229 0 6.54603C1.2583 9.73902 4.36402 12.001 8.00071 12.001C9.12809 12.001 10.2045 11.7828 11.1901 11.3864L11.4992 11.6956L13.6194 13.8194L14.5468 12.8957L1.65468 0L0.727325 0.927354ZM4.74952 4.9459L5.87325 6.06963C5.84052 6.22602 5.8187 6.38237 5.8187 6.54603C5.8187 7.74978 6.79696 8.72803 8.00071 8.72803C8.16436 8.72803 8.32075 8.70621 8.47349 8.67348L9.59722 9.79722C9.11353 10.0372 8.57533 10.1827 8.00071 10.1827C5.99326 10.1827 4.36402 8.55347 4.36402 6.54603C4.36402 5.97144 4.50949 5.4332 4.74952 4.9459Z" fill="#868686"/>
</svg>

