<svg width="22" height="22" viewBox="0 0 22 22" fill="#E4EBFA" xmlns="http://www.w3.org/2000/svg">
<g clip-path="url(#clip0_645_3303)">
<path d="M18.3337 7.33272C18.3348 5.9212 17.9285 4.53935 17.1636 3.35304C16.3987 2.16674 15.3076 1.22639 14.0215 0.644883C12.7353 0.0633737 11.3086 -0.134588 9.91269 0.0747607C8.51678 0.284109 7.21094 0.891872 6.15193 1.82509C5.09292 2.75832 4.32574 3.97734 3.94249 5.33584C3.55923 6.69434 3.57618 8.13458 3.9913 9.48368C4.40642 10.8328 5.20207 12.0334 6.28275 12.9415C7.36343 13.8495 8.6832 14.4264 10.0837 14.6028V17.4161H8.25032C8.00721 17.4161 7.77405 17.5126 7.60214 17.6845C7.43023 17.8565 7.33366 18.0896 7.33366 18.3327C7.33366 18.5758 7.43023 18.809 7.60214 18.9809C7.77405 19.1528 8.00721 19.2494 8.25032 19.2494H10.0837V21.0827C10.0837 21.3258 10.1802 21.559 10.3521 21.7309C10.5241 21.9028 10.7572 21.9994 11.0003 21.9994C11.2434 21.9994 11.4766 21.9028 11.6485 21.7309C11.8204 21.559 11.917 21.3258 11.917 21.0827V19.2494H13.7503C13.9934 19.2494 14.2266 19.1528 14.3985 18.9809C14.5704 18.809 14.667 18.5758 14.667 18.3327C14.667 18.0896 14.5704 17.8565 14.3985 17.6845C14.2266 17.5126 13.9934 17.4161 13.7503 17.4161H11.917V14.6028C13.6875 14.3782 15.3156 13.5162 16.4966 12.1781C17.6776 10.84 18.3307 9.11746 18.3337 7.33272ZM5.50032 7.33272C5.50032 6.24493 5.82289 5.18156 6.42724 4.27709C7.03159 3.37262 7.89057 2.66767 8.89556 2.25139C9.90056 1.8351 11.0064 1.72619 12.0733 1.9384C13.1402 2.15062 14.1202 2.67445 14.8894 3.44364C15.6586 4.21282 16.1824 5.19283 16.3946 6.25973C16.6069 7.32662 16.4979 8.43249 16.0817 9.43748C15.6654 10.4425 14.9604 11.3015 14.056 11.9058C13.1515 12.5102 12.0881 12.8327 11.0003 12.8327C9.54208 12.8313 8.14398 12.2513 7.11284 11.2202C6.08171 10.1891 5.50178 8.79097 5.50032 7.33272Z" fill="#E4EBFA"/>
</g>
<defs>
<clipPath id="clip0_645_3303">
<rect width="22" height="22" fill="#E4EBFA"/>
</clipPath>
</defs>
</svg>
