<svg width="16" height="16" viewBox="0 0 16 16" fill="none" xmlns="http://www.w3.org/2000/svg">
<path d="M15.7397 8.16506C15.7397 7.58156 15.6871 7.02322 15.5895 6.48633H8.03711V9.56229L12.3867 9.56323C12.2103 10.5867 11.6425 11.4591 10.7726 12.0408V14.0364H13.3617C14.8735 12.6466 15.7397 10.5923 15.7397 8.16506Z" fill="#4285F4"/>
<path d="M10.7746 12.0414C10.0539 12.5243 9.12577 12.8067 8.04002 12.8067C5.94265 12.8067 4.1634 11.4029 3.52621 9.51074H0.855469V11.5688C2.17864 14.1769 4.89818 15.9665 8.04002 15.9665C10.2115 15.9665 12.0358 15.2572 13.3637 14.0361L10.7746 12.0414Z" fill="#34A853"/>
<path d="M3.27415 7.98427C3.27415 7.45296 3.3633 6.93937 3.52564 6.45654V4.39844H0.8549C0.307801 5.47689 0 6.69423 0 7.98427C0 9.27431 0.308739 10.4916 0.8549 11.5701L3.52564 9.512C3.3633 9.02916 3.27415 8.51557 3.27415 7.98427Z" fill="#FABB05"/>
<path d="M8.04002 3.15985C9.22524 3.15985 10.2866 3.56532 11.1246 4.35761L13.419 2.08047C12.0255 0.791362 10.2087 0 8.04002 0C4.89912 0 2.17864 1.78965 0.855469 4.3977L3.52621 6.4558C4.1634 4.56361 5.94265 3.15985 8.04002 3.15985Z" fill="#E94235"/>
</svg>
