<svg width="20" height="20" viewBox="0 0 20 20" fill="none" xmlns="http://www.w3.org/2000/svg">
<g clip-path="url(#clip0_1593_1662)">
<path d="M19.1667 9.16602H0.833333C0.373096 9.16602 0 9.53911 0 9.99935C0 10.4596 0.373096 10.8327 0.833333 10.8327H19.1667C19.6269 10.8327 20 10.4596 20 9.99935C20 9.53911 19.6269 9.16602 19.1667 9.16602Z" fill="#404040"/>
<path d="M19.1667 3.33398H0.833333C0.373096 3.33398 0 3.70708 0 4.16732C0 4.62755 0.373096 5.00065 0.833333 5.00065H19.1667C19.6269 5.00065 20 4.62755 20 4.16732C20 3.70708 19.6269 3.33398 19.1667 3.33398Z" fill="#404040"/>
<path d="M19.1667 15H0.833333C0.373096 15 0 15.3731 0 15.8333C0 16.2936 0.373096 16.6667 0.833333 16.6667H19.1667C19.6269 16.6667 20 16.2936 20 15.8333C20 15.3731 19.6269 15 19.1667 15Z" fill="#404040"/>
</g>
<defs>
<clipPath id="clip0_1593_1662">
<rect width="20" height="20" fill="white"/>
</clipPath>
</defs>
</svg>
