<svg width="30" height="30" viewBox="0 0 30 30" fill="none" xmlns="http://www.w3.org/2000/svg">
<circle cx="15" cy="15" r="15" fill="#FEE500"/>
<path d="M15.0437 7.23926C10.3768 7.23926 6.61328 10.2501 6.61328 13.9052C6.61328 16.2778 8.17892 18.3553 10.5274 19.5415L9.73252 22.5103C9.71753 22.5548 9.71523 22.6025 9.72586 22.6482C9.7365 22.694 9.75965 22.7358 9.79274 22.7692C9.84098 22.8117 9.90305 22.8352 9.96737 22.8354C10.0207 22.8311 10.0713 22.81 10.1119 22.7752L13.5322 20.4689C14.0371 20.5386 14.546 20.5748 15.0557 20.5773C19.7165 20.5773 23.4861 17.5664 23.4861 13.9052C23.4861 10.2441 19.7044 7.23926 15.0437 7.23926Z" fill="#392020"/>
<path d="M9.56378 12.8515H8.64246C8.52826 12.8549 8.41548 12.8256 8.31729 12.7672C8.27369 12.7399 8.2362 12.7039 8.20719 12.6614C8.17818 12.6189 8.15826 12.5709 8.14868 12.5203C8.14575 12.4883 8.14575 12.4561 8.14868 12.424C8.14582 12.3641 8.15746 12.3043 8.18262 12.2497C8.20777 12.1952 8.24571 12.1476 8.2932 12.1109C8.39818 12.0349 8.52489 11.9947 8.6545 11.9964H11.4305C11.5456 11.9924 11.6591 12.024 11.7557 12.0868C11.8003 12.1129 11.8386 12.1486 11.8677 12.1913C11.8969 12.234 11.9162 12.2826 11.9243 12.3337C11.9272 12.3637 11.9272 12.394 11.9243 12.424C11.9271 12.4849 11.9155 12.5455 11.8904 12.601C11.8653 12.6564 11.8274 12.7051 11.7798 12.7431C11.6773 12.8191 11.5518 12.8574 11.4245 12.8515H10.5333V16.019C10.5369 16.0864 10.5264 16.1539 10.5026 16.2171C10.4788 16.2804 10.442 16.338 10.3948 16.3863C10.3494 16.4325 10.2949 16.4686 10.2348 16.4925C10.1746 16.5164 10.1102 16.5273 10.0455 16.5248C9.93242 16.528 9.82173 16.4919 9.73238 16.4224C9.64732 16.3546 9.58959 16.2584 9.5698 16.1514C9.56385 16.1075 9.56385 16.0629 9.5698 16.019L9.56378 12.8515Z" fill="#FEE500"/>
<path d="M12.1904 12.2317C12.2169 12.1326 12.2791 12.0468 12.3651 11.9908C12.4566 11.9389 12.561 11.9138 12.6662 11.9185H12.895C13.0066 11.9145 13.1171 11.9416 13.2141 11.9968C13.317 12.066 13.3901 12.1713 13.4189 12.2919L14.6232 15.6941C14.6544 15.7829 14.6806 15.8734 14.7015 15.9652C14.7035 16.0033 14.7035 16.0414 14.7015 16.0795C14.7035 16.1382 14.6927 16.1967 14.6698 16.2507C14.647 16.3048 14.6125 16.3533 14.569 16.3927C14.5268 16.4359 14.4762 16.47 14.4202 16.4928C14.3643 16.5156 14.3042 16.5266 14.2438 16.5251C14.151 16.5344 14.0577 16.5121 13.979 16.4618C13.9004 16.4116 13.8409 16.3363 13.8103 16.2482L13.5574 15.5075H11.9737L11.7207 16.2482C11.6908 16.3381 11.6307 16.4148 11.5505 16.4653C11.4704 16.5158 11.3752 16.5369 11.2812 16.5251C11.1793 16.5278 11.0796 16.496 10.9981 16.4348C10.9188 16.3717 10.8652 16.2818 10.8476 16.1819C10.8444 16.1479 10.8444 16.1136 10.8476 16.0795C10.8373 16.0198 10.8373 15.9587 10.8476 15.8989C10.8476 15.8327 10.8898 15.7604 10.9138 15.6941L12.1904 12.2317ZM12.7926 13.0205L12.2205 14.8271H13.3586L12.7926 13.0205Z" fill="#FEE500"/>
<path d="M14.8384 12.4243C14.8323 12.2892 14.8799 12.1572 14.9709 12.057C15.0171 12.0104 15.0726 11.9739 15.1338 11.9501C15.195 11.9262 15.2606 11.9154 15.3262 11.9185C15.439 11.9172 15.5491 11.9532 15.6393 12.0209C15.7229 12.0915 15.7785 12.1898 15.7959 12.2978C15.8018 12.3398 15.8018 12.3824 15.7959 12.4243V15.5918H17.4518C17.5666 15.5903 17.6794 15.6215 17.777 15.682C17.8208 15.7091 17.8585 15.7451 17.8876 15.7876C17.9166 15.8301 17.9364 15.8783 17.9456 15.9289C17.9456 15.9289 17.9456 15.9892 17.9456 16.0193C17.9485 16.0792 17.9368 16.139 17.9117 16.1935C17.8865 16.248 17.8486 16.2957 17.8011 16.3324C17.6961 16.4085 17.5694 16.4485 17.4398 16.4468H15.4045C15.2748 16.4551 15.146 16.4214 15.0371 16.3505C14.9398 16.2777 14.8749 16.1696 14.8565 16.0494C14.8521 15.9833 14.8521 15.9168 14.8565 15.8507L14.8384 12.4243Z" fill="#FEE500"/>
<path d="M18.0543 12.4239C18.0507 12.2892 18.098 12.158 18.1867 12.0566C18.277 11.9746 18.3928 11.9262 18.5145 11.9196C18.6363 11.913 18.7566 11.9486 18.8552 12.0204C18.9406 12.0905 18.9983 12.1887 19.0177 12.2974C19.0207 12.3395 19.0207 12.3818 19.0177 12.4239V13.8992L20.5412 12.1408C20.5999 12.0809 20.6623 12.0246 20.7279 11.9723C20.7897 11.9355 20.8607 11.9166 20.9326 11.918C21.0379 11.9175 21.1408 11.949 21.2277 12.0084C21.2686 12.036 21.3036 12.0715 21.3305 12.1129C21.3574 12.1543 21.3757 12.2007 21.3843 12.2493C21.3867 12.2612 21.3867 12.2735 21.3843 12.2854C21.3813 12.2993 21.3813 12.3137 21.3843 12.3276C21.3841 12.3909 21.3675 12.4532 21.3361 12.5082C21.3041 12.5665 21.2658 12.621 21.2217 12.6708L20.2221 13.7667L21.4264 15.6335V15.6937C21.4889 15.7799 21.5377 15.8755 21.5709 15.9767V16.0068C21.5779 16.0766 21.5678 16.147 21.5416 16.212C21.5154 16.2771 21.4738 16.3347 21.4204 16.3801C21.3199 16.4561 21.197 16.4964 21.0711 16.4946C20.9875 16.498 20.9044 16.4793 20.8303 16.4403C20.7501 16.3866 20.684 16.3143 20.6376 16.2296L19.5175 14.4231L18.9816 14.9831V15.9887C18.9852 16.1235 18.9379 16.2546 18.8491 16.356C18.8015 16.4025 18.7449 16.4389 18.6828 16.4627C18.6207 16.4865 18.5543 16.4974 18.4878 16.4946C18.3767 16.4969 18.2682 16.4607 18.1807 16.3922C18.0957 16.3244 18.0379 16.2282 18.0181 16.1212C18.0122 16.0773 18.0122 16.0327 18.0181 15.9887L18.0543 12.4239Z" fill="#FEE500"/>
</svg>
