<svg width="22" height="22" viewBox="0 0 22 22" fill="none" xmlns="http://www.w3.org/2000/svg">
<g clip-path="url(#clip0_645_3300)">
<path d="M19.2606 0H14.6952C14.1909 0 13.7821 0.409492 13.7821 0.91459C13.7821 1.41969 14.1909 1.82918 14.6952 1.82918H18.8826L12.6444 8.07774C9.26823 5.41024 4.37241 5.98924 1.70933 9.37097C-0.95375 12.7527 -0.375733 17.6565 3.00041 20.324C6.37656 22.9915 11.2724 22.4125 13.9355 19.0308C16.166 16.1984 16.166 12.2034 13.9355 9.37101L20.1738 3.12245V7.3168C20.1738 7.82195 20.5826 8.23139 21.0868 8.23139C21.5911 8.23139 21.9999 7.8219 21.9999 7.3168V2.74381C21.9999 1.22843 20.7735 0 19.2606 0ZM7.84695 20.1212C4.56907 20.1212 1.91184 17.4596 1.91184 14.1763C1.91184 10.893 4.56907 8.23139 7.84695 8.23139C11.1248 8.23139 13.7821 10.893 13.7821 14.1763C13.7781 17.4579 11.1231 20.1172 7.84695 20.1212Z" fill="#E4EBFA"/>
</g>
<defs>
<clipPath id="clip0_645_3300">
<rect width="22" height="22" fill="white"/>
</clipPath>
</defs>
</svg>
