<svg width="24" height="24" viewBox="0 0 24 24" fill="none" xmlns="http://www.w3.org/2000/svg">
<g clip-path="url(#clip0_645_3280)">
<path d="M22.4427 11.988C21.6857 11.9947 21.0497 12.5587 20.9523 13.3093C20.2311 18.2367 15.652 21.6466 10.7246 20.9254C5.79717 20.2042 2.38734 15.6251 3.10852 10.6977C3.82971 5.7703 8.40881 2.36048 13.3362 3.08166C15.0158 3.32748 16.5919 4.04242 17.8832 5.14427L16.7521 6.27541C16.3612 6.66636 16.3613 7.30017 16.7523 7.69103C16.9407 7.87937 17.1964 7.98485 17.4628 7.9841H22.0533C22.6061 7.9841 23.0543 7.53595 23.0543 6.98312V2.39257C23.0541 1.83974 22.6059 1.39169 22.0531 1.39178C21.7877 1.39183 21.5332 1.49726 21.3456 1.68486L20.0123 3.01817C15.0518 -1.37667 7.46775 -0.918155 3.07286 4.04237C-1.32203 9.0029 -0.863418 16.5869 4.09706 20.9818C9.05754 25.3767 16.6416 24.9182 21.0365 19.9576C22.5836 18.2114 23.5881 16.052 23.9272 13.7438C24.0599 12.9174 23.4975 12.1399 22.6711 12.0072C22.5956 11.995 22.5192 11.9886 22.4427 11.988Z" fill="#437DF6"/>
</g>
<defs>
<clipPath id="clip0_645_3280">
<rect width="24" height="24" fill="white"/>
</clipPath>
</defs>
</svg>
