<svg xmlns="http://www.w3.org/2000/svg" width="23" height="22" fill="none">
<path fill="#D0D0D0" d="m20.477 21.596-5.193-4.407a8.869 8.869 0 0 1-2.56 1.395 9.126 9.126 0 0 1-3.079.515c-2.696 0-4.977-.925-6.843-2.774C.935 14.475 0 12.217 0 9.549 0 6.88.934 4.622 2.802 2.774 4.669.926 6.95 0 9.645 0c2.696 0 4.977.925 6.844 2.774 1.866 1.849 2.8 4.107 2.801 6.775a8.875 8.875 0 0 1-.519 3.049 8.733 8.733 0 0 1-1.41 2.534l5.23 4.444c.273.27.409.6.409.992 0 .391-.148.734-.445 1.028-.272.27-.618.404-1.039.404-.42 0-.766-.135-1.039-.404ZM9.645 16.16c1.855 0 3.432-.643 4.73-1.929 1.3-1.286 1.949-2.846 1.948-4.682 0-1.836-.65-3.397-1.949-4.683S11.5 2.937 9.645 2.938c-1.855 0-3.432.643-4.73 1.93-1.3 1.285-1.948 2.846-1.947 4.681 0 1.837.65 3.398 1.948 4.684 1.299 1.286 2.875 1.928 4.73 1.927Z"/>
</svg>