<svg width="79" height="17" viewBox="0 0 79 17" fill="none" xmlns="http://www.w3.org/2000/svg">
<g clip-path="url(#clip0_400_3262)">
<path d="M13.2685 0H3.36579C1.50692 0 0 1.57696 0 3.52225V13.4778C0 15.423 1.50692 17 3.36579 17H13.2685C15.1274 17 16.6343 15.423 16.6343 13.4778V3.52225C16.6343 1.57696 15.1274 0 13.2685 0Z" fill="#437DF6"/>
<path d="M8.29325 7.73236C8.29325 7.3376 8.29325 6.94539 8.29325 6.55064C8.29325 6.44112 8.29325 6.33161 8.30785 6.22464C8.33949 6.00562 8.41494 5.80442 8.55366 5.63378C8.6218 5.54974 8.70698 5.48097 8.79946 5.42749C8.90411 5.36637 9.00146 5.29506 9.0623 5.18554C9.13774 5.05056 9.16695 4.90539 9.13044 4.74749C9.0915 4.57176 8.99659 4.44187 8.84813 4.35783C8.69724 4.27378 8.53905 4.26105 8.37843 4.32981C8.26648 4.37566 8.17887 4.45461 8.11072 4.55903C8.05232 4.65071 8.02555 4.75258 8.02311 4.8621C8.02311 4.96652 7.98417 5.04292 7.90143 5.10405C7.79678 5.18045 7.62399 5.14734 7.55098 5.03528C7.51934 4.98434 7.5023 4.93086 7.5023 4.87228C7.49743 4.67873 7.54367 4.4979 7.63129 4.32981C7.697 4.20502 7.78461 4.09551 7.88926 4.00382C8.01824 3.89176 8.16183 3.81536 8.32246 3.77206C8.50498 3.72367 8.68508 3.72622 8.86517 3.77715C8.97955 3.81026 9.08907 3.86375 9.18885 3.93506C9.33487 4.03948 9.44925 4.16936 9.532 4.32981C9.57337 4.41131 9.59771 4.503 9.62935 4.58959C9.67559 4.71693 9.66829 4.84936 9.66098 4.9818C9.64882 5.16007 9.59284 5.32307 9.50279 5.47333C9.40058 5.64906 9.26186 5.7815 9.08907 5.87573C8.96738 5.94195 8.93088 6.05401 8.90897 6.18135C8.85543 6.48951 8.87734 6.80277 8.8749 7.11094C8.87004 7.76802 8.87004 8.42509 8.8749 9.08217C8.8749 9.24008 8.76539 9.36996 8.6072 9.35723C8.54635 9.35214 8.48308 9.35468 8.42467 9.34449C8.35653 9.33176 8.30055 9.26045 8.29568 9.18659C8.29082 9.13566 8.29082 9.08472 8.29082 9.03378C8.29082 8.59828 8.29082 8.16277 8.29082 7.72727C8.29082 7.72727 8.29082 7.72727 8.29325 7.72727V7.73236Z" fill="white"/>
<path d="M4.79512 12.1864C5.697 12.1864 6.42812 11.4213 6.42812 10.4775C6.42812 9.53366 5.697 8.76855 4.79512 8.76855C3.89323 8.76855 3.16211 9.53366 3.16211 10.4775C3.16211 11.4213 3.89323 12.1864 4.79512 12.1864Z" fill="#FFD217"/>
<path d="M11.5848 8.97994C11.4193 7.72945 10.4507 6.72092 9.2363 6.56811C8.90532 6.52736 8.58407 6.55283 8.28473 6.62923C8.28473 6.62923 8.27986 6.62923 8.27499 6.62923C8.25065 6.63432 8.22632 6.64196 8.20441 6.6496C6.53004 7.10039 6.01409 9.0538 5.89971 9.6141C5.87051 9.75927 5.834 9.90189 5.79019 10.042C5.59063 10.6761 5.01628 12.0387 3.5293 11.5089C3.5293 11.5089 3.88218 12.1813 4.9092 12.1813H11.5799C12.4269 12.1813 13.1107 11.4631 13.1107 10.5793C13.1107 9.6956 12.4293 8.98249 11.5872 8.97739L11.5848 8.97994Z" fill="white"/>
<path d="M22.6523 0.888672H33.9276V3.35654H29.7076V15.296H26.8845V3.35654H22.6548V0.888672H22.6523Z" fill="#404040"/>
<path d="M46.873 12.0616C46.3181 13.1771 45.554 14.0252 44.5829 14.6135C43.6095 15.1993 42.5094 15.4947 41.2804 15.4947C40.0514 15.4947 38.9489 15.2018 37.9779 14.6135C37.0044 14.0277 36.2402 13.1745 35.6878 12.0565C35.1329 10.9384 34.8555 9.61664 34.8555 8.0911C34.8555 6.56555 35.1329 5.23357 35.6878 4.11551C36.2427 2.99746 37.0069 2.14683 37.9779 1.5636C38.9514 0.980384 40.0514 0.6875 41.2804 0.6875C42.5094 0.6875 43.6119 0.980384 44.5829 1.5636C45.5564 2.14683 46.3181 2.99746 46.873 4.11551C47.4279 5.23357 47.7054 6.55791 47.7054 8.0911C47.7054 9.62428 47.4279 10.9461 46.873 12.0616ZM44.3834 5.50608C44.0938 4.79552 43.6849 4.25814 43.1519 3.88885C42.6189 3.51956 41.9959 3.33619 41.278 3.33619C40.56 3.33619 39.9492 3.51956 39.4186 3.88885C38.8905 4.25814 38.4768 4.79552 38.1823 5.50608C37.8878 6.21664 37.7394 7.07746 37.7394 8.09364C37.7394 9.10982 37.8878 9.95791 38.1823 10.6659C38.4768 11.3739 38.8881 11.9113 39.4186 12.2832C39.9467 12.655 40.5673 12.8435 41.278 12.8511C41.9935 12.8435 42.6189 12.655 43.1519 12.2832C43.6849 11.9113 44.0938 11.3739 44.3834 10.6659C44.6705 9.96046 44.8166 9.10218 44.8166 8.09364C44.8166 7.0851 44.673 6.21664 44.3834 5.50608Z" fill="#404040"/>
<path d="M52.6277 15.2935H49.7754V0.888672H52.6277V15.2935ZM51.0506 15.2935V12.7263H54.5016C55.3826 12.7263 56.12 12.5607 56.7114 12.2296C57.3028 11.8986 57.7482 11.3917 58.0475 10.7066C58.3444 10.0241 58.4953 9.148 58.4953 8.08088C58.4953 7.01377 58.3444 6.1453 58.0426 5.46021C57.7409 4.77257 57.2979 4.2683 56.7114 3.9423C56.1249 3.61631 55.3948 3.45586 54.5211 3.45586H50.9849V0.888672H54.6647C56.0397 0.888672 57.2322 1.17392 58.2398 1.7444C59.2473 2.31489 60.0188 3.1426 60.5542 4.22755C61.0896 5.31249 61.3573 6.59609 61.3573 8.08343C61.3573 9.57077 61.0872 10.862 60.5493 11.9444C60.0115 13.0268 59.2351 13.8545 58.2252 14.4326C57.2152 15.0108 56.0154 15.2986 54.6257 15.2986H51.0506V15.2935Z" fill="#404040"/>
<path d="M66.28 15.2935H63.4277V0.888672H66.28V15.2935Z" fill="#404040"/>
<path d="M75.7187 4.02421C75.5215 3.7517 75.2514 3.54541 74.9058 3.40788C74.5602 3.26781 74.1538 3.19904 73.6841 3.19904C73.2144 3.19904 72.8128 3.26781 72.477 3.40788C72.1411 3.54796 71.8832 3.74152 71.7079 3.9911C71.5303 4.24069 71.4427 4.52339 71.4427 4.84174C71.4305 5.33328 71.6203 5.7153 72.0121 5.99036C72.404 6.26541 72.9467 6.48698 73.6378 6.65253L74.8742 6.96069C76.1738 7.2714 77.1862 7.76549 77.9114 8.44294C78.6367 9.12039 78.9993 10.0347 78.9993 11.1884C78.9993 12.0645 78.7875 12.826 78.3665 13.4754C77.9455 14.1249 77.3322 14.6241 76.5315 14.973C75.7308 15.3219 74.7744 15.4951 73.6646 15.4951C72.55 15.5027 71.5838 15.3244 70.771 14.9628C69.9557 14.6011 69.3229 14.0714 68.8702 13.371C68.4176 12.6707 68.1742 11.8149 68.1426 10.7987H70.9194C70.9511 11.2699 71.0849 11.6698 71.3185 11.9983C71.5522 12.3268 71.8686 12.5713 72.2652 12.7343C72.6619 12.8973 73.1195 12.9788 73.6378 12.9788C74.1562 12.9788 74.5651 12.9024 74.9399 12.7496C75.3147 12.5968 75.6018 12.3854 75.8038 12.1129C76.0058 11.8404 76.108 11.5271 76.108 11.168C76.108 10.8497 76.018 10.5772 75.8428 10.3531C75.6651 10.1289 75.4071 9.93792 75.0689 9.78511C74.7306 9.6323 74.2949 9.48713 73.762 9.34706L72.2506 8.97013C71.046 8.65942 70.1212 8.18316 69.4738 7.54137C68.8264 6.90212 68.5076 6.06676 68.5125 5.04039C68.5125 4.18466 68.734 3.42571 69.1769 2.76099C69.6198 2.09882 70.238 1.58691 71.0265 1.22781C71.815 0.868707 72.7106 0.69043 73.7133 0.69043C74.716 0.69043 75.5994 0.871254 76.3709 1.2329C77.1399 1.59455 77.7386 2.10391 78.1621 2.76099C78.5855 3.41807 78.8021 4.16683 78.8094 5.00983H76.0618C76.0302 4.62526 75.9158 4.29672 75.7187 4.02421Z" fill="#404040"/>
</g>
<defs>
<clipPath id="clip0_400_3262">
<rect width="79" height="17" fill="white"/>
</clipPath>
</defs>
</svg>
