<svg width="39" height="36" viewBox="0 0 39 36" fill="none" transform="rotate(180)" xmlns="http://www.w3.org/2000/svg">
<path fill-rule="evenodd" clip-rule="evenodd" d="M0.403692 0.446244C0.662254 0.160561 1.01289 7.14808e-05 1.3785 7.14647e-05C1.74411 7.14485e-05 2.09474 0.160561 2.35331 0.446244L19.5083 10.036L36.6633 0.446243C36.9234 0.168655 37.2717 0.0150559 37.6332 0.0185273C37.9947 0.0219996 38.3405 0.182265 38.5962 0.464805C38.8518 0.747344 38.9968 1.12955 38.9999 1.52911C39.0031 1.92867 38.8641 2.3136 38.613 2.60101L20.4831 13.2682C20.2246 13.5539 19.8739 13.7144 19.5083 13.7144C19.1427 13.7144 18.7921 13.5539 18.5335 13.2682L0.403692 2.60101C0.145208 2.31524 -5.09611e-07 1.92771 -5.27082e-07 1.52363C-5.44552e-07 1.11955 0.145208 0.732014 0.403692 0.446244Z" fill="#ACBBDB"/>
<path fill-rule="evenodd" clip-rule="evenodd" d="M0.403692 11.5888C0.662254 11.3031 1.01289 11.1426 1.3785 11.1426C1.74411 11.1426 2.09474 11.3031 2.35331 11.5888L19.5083 21.1786L36.6633 11.5888C36.9234 11.3112 37.2717 11.1576 37.6332 11.1611C37.9947 11.1646 38.3405 11.3248 38.5962 11.6074C38.8518 11.8899 38.9968 12.2721 38.9999 12.6717C39.0031 13.0712 38.8641 13.4562 38.613 13.7436L20.4831 24.4108C20.2246 24.6964 19.8739 24.8569 19.5083 24.8569C19.1427 24.8569 18.7921 24.6964 18.5335 24.4108L0.403692 13.7436C0.145208 13.4578 -5.09611e-07 13.0703 -5.27082e-07 12.6662C-5.44552e-07 12.2621 0.145208 11.8746 0.403692 11.5888Z" fill="#ACBBDB"/>
<path fill-rule="evenodd" clip-rule="evenodd" d="M0.403692 22.7319C0.662254 22.4462 1.01289 22.2857 1.3785 22.2857C1.74411 22.2857 2.09474 22.4462 2.35331 22.7319L19.5083 32.3217L36.6633 22.7319C36.9234 22.4543 37.2717 22.3007 37.6332 22.3042C37.9947 22.3076 38.3405 22.4679 38.5962 22.7504C38.8518 23.033 38.9968 23.4152 38.9999 23.8148C39.0031 24.2143 38.8641 24.5992 38.613 24.8867L20.4831 35.5538C20.2246 35.8395 19.8739 36 19.5083 36C19.1427 36 18.7921 35.8395 18.5335 35.5538L0.403692 24.8867C0.145208 24.6009 -5.09611e-07 24.2134 -5.27082e-07 23.8093C-5.44552e-07 23.4052 0.145208 23.0177 0.403692 22.7319Z" fill="#ACBBDB"/>
</svg>

